<?xml version="1.0" encoding="utf-8"?>
<!-- Generator: Adobe Illustrator 25.3.1, SVG Export Plug-In . SVG Version: 6.00 Build 0)  -->
<svg version="1.1" id="Layer_1" xmlns="http://www.w3.org/2000/svg" xmlns:xlink="http://www.w3.org/1999/xlink" x="0px" y="0px"
	 viewBox="0 0 85 39" style="enable-background:new 0 0 85 39;" xml:space="preserve">
<style type="text/css">
	.st0{fill:#FFFFFF;}
</style>
<g>
	<path class="st0" d="M0.6,29C0.2,27.6,0,26.1,0,24.6c0-1.5,0.2-3,0.5-4.4C1,17.6,1.8,15,3.1,12.6c0.6-1.1,1.3-2.3,2.1-3.3
		c0.8-1.1,1.6-2,2.6-2.9c1-0.9,2-1.7,3.2-2.4c1.2-0.7,2.4-1.2,3.7-1.6s2.6-0.6,3.9-0.7s2.7,0,4,0.2c0.6,0.1,1.2,0.3,1.8,0.5
		C25,2.6,25.5,2.9,26,3.2s1,0.8,1.4,1.2c0.4,0.5,0.7,1,0.9,1.7c0.4,1.2,0.5,2.5,0.2,3.7c-0.3,1.3-0.8,2.4-1.6,3.4
		c-0.7,1-1.6,1.9-2.7,2.6c-1.1,0.7-2.2,1.3-3.3,1.7c-0.4,0.2-0.8,0.3-1.2,0.5c-0.5,0.1-0.9,0.2-1.3,0.2c-0.5,0-0.9-0.2-1.2-0.6
		c-0.3-0.3-0.6-0.8-0.6-1.2c-0.1-0.5,0-1,0.3-1.4c0.2-0.4,0.6-0.7,1-0.9c0.4-0.2,0.7-0.3,1.1-0.4c0.4-0.1,0.8-0.2,1.1-0.4
		c0.5-0.2,1.1-0.5,1.6-0.8c0.6-0.3,1.1-0.7,1.5-1c0.5-0.4,0.9-0.8,1.2-1.3c0.3-0.5,0.6-1,0.7-1.7c0.1-0.6,0.1-1.2,0-1.8
		c-0.1-0.6-0.4-1.1-0.7-1.6s-0.8-0.9-1.2-1.3c-0.5-0.4-1-0.6-1.7-0.8c-1.3-0.4-2.5-0.4-3.8-0.1c-1.3,0.3-2.5,0.8-3.5,1.5
		c-1.1,0.7-2,1.5-2.9,2.5c-0.9,1-1.6,2-2.3,3.1c-0.7,1.1-1.3,2.2-1.9,3.4c-0.5,1.2-1,2.4-1.3,3.7c-0.4,1.3-0.6,2.6-0.8,4
		c-0.2,1.3-0.2,2.7-0.2,4c0,1.3,0.2,2.5,0.6,3.8c0.3,1.3,0.9,2.4,1.7,3.4c0.8,0.9,1.7,1.6,2.8,1.9s2.2,0.5,3.4,0.6
		c1.3,0,2.6-0.1,3.8-0.3c1.2-0.3,2.5-0.7,3.6-1.3c0.5-0.3,1.1-0.6,1.7-1c0.6-0.4,1.2-0.9,1.7-1.4c0.6-0.5,1.1-1,1.5-1.6
		c0.5-0.5,0.9-1.1,1.2-1.6c0.1-0.2,0.2-0.3,0.4-0.5c0.2-0.2,0.4-0.1,0.6,0c0.2,0.1,0.2,0.3,0.2,0.4c0,0.2-0.1,0.3-0.2,0.5
		c-0.2,0.2-0.4,0.5-0.6,0.9s-0.5,0.6-0.8,1c-0.3,0.3-0.5,0.6-0.8,0.9c-0.3,0.3-0.5,0.6-0.7,0.8c-1.7,1.8-3.7,3.1-6,4
		c-2.3,0.9-4.7,1.5-7.1,1.6c-1.3,0.1-2.5,0-3.7-0.3c-1.2-0.3-2.4-0.8-3.4-1.5c-1.1-0.8-2-1.7-2.6-2.8C1.4,31.5,0.9,30.3,0.6,29z"/>
	<path class="st0" d="M26.1,33.5C26,33.2,26,32.9,26,32.7c-0.1-1.3-0.1-2.6,0.2-3.9c0.2-1.3,0.6-2.6,1-3.8c0.4-1.2,1-2.3,1.6-3.4
		c0.6-1.1,1.4-2.1,2.4-2.9c1-0.8,2.1-1.3,3.4-1.5c1.2-0.2,2.5,0.1,3.7,0.7c0.4,0.2,0.8,0.5,1.2,0.8c0.4,0.3,0.7,0.6,1,1
		c0.2,0.4,0.4,0.9,0.4,1.4c0,0.5-0.2,1-0.5,1.3c-0.3,0.4-0.7,0.7-1.2,0.8c-0.5,0.2-0.9,0.2-1.4,0c-0.5-0.1-0.8-0.4-1.1-0.7
		s-0.6-0.6-1-0.8c-0.2-0.2-0.5-0.2-0.8-0.2c-0.3,0-0.5,0.1-0.7,0.2c-0.2,0.1-0.5,0.2-0.7,0.4c-0.2,0.2-0.4,0.3-0.6,0.5
		c-0.5,0.5-0.8,0.9-1.2,1.4c-0.3,0.5-0.7,1-1,1.6c-0.6,1.1-1.1,2.3-1.5,3.6c-0.4,1.3-0.6,2.6-0.5,3.9c0,0.2,0,0.4,0.1,0.6
		c0,0.2,0.1,0.4,0.2,0.6c0.1,0.2,0.2,0.3,0.3,0.5c0.1,0.1,0.3,0.2,0.5,0.2c0.2,0,0.5,0,0.7-0.2c0.2-0.2,0.4-0.3,0.6-0.4
		c0.2-0.2,0.4-0.4,0.6-0.6c0.2-0.2,0.4-0.5,0.6-0.7c0.4-0.5,0.7-1.1,1-1.7c0.3-0.6,0.6-1.2,0.9-1.8l0.8-2c0.1-0.3,0.2-0.6,0.3-0.8
		c0.1-0.3,0.1-0.6,0.2-0.9c0.1-0.4,0.3-0.8,0.4-1.1c0.2-0.3,0.5-0.6,0.8-0.8c0.4-0.2,0.9-0.3,1.4-0.3c0.5,0.1,0.9,0.2,1.3,0.6
		c0.4,0.3,0.6,0.7,0.7,1.2c0.1,0.5,0.1,0.9,0,1.4c-0.2,0.5-0.3,0.9-0.5,1.4c-0.2,0.5-0.3,0.9-0.5,1.4c-0.1,0.2-0.2,0.7-0.4,1.3
		c-0.2,0.6-0.3,1.2-0.4,1.8c-0.1,0.6,0,1.2,0.1,1.6c0.1,0.5,0.5,0.7,1,0.6h0c0.2,0,0.4,0,0.6-0.2c0.2-0.2,0.4-0.3,0.5-0.4
		c0.4-0.4,0.8-0.8,1.2-1.3c0.4-0.5,0.7-0.9,1.1-1.4c0.3-0.5,0.6-1,1-1.5c0.2-0.3,0.4-0.7,0.7-1c0.2-0.3,0.4-0.7,0.6-1.1
		c0.1-0.2,0.3-0.3,0.5-0.3c0.2,0,0.4,0,0.5,0.2c0.1,0.1,0.2,0.2,0.1,0.4c0,0.1-0.1,0.3-0.1,0.4c-0.3,1.1-0.7,2.1-1.2,3.2
		c-0.5,1-1,2-1.6,3c-0.3,0.5-0.7,1-1.1,1.4c-0.4,0.5-0.9,0.8-1.4,1.1c-0.4,0.2-0.7,0.3-1.2,0.4c-0.4,0.1-0.8,0.1-1.2,0
		c-0.7-0.1-1.3-0.3-1.7-0.6c-0.5-0.3-0.9-0.8-1.2-1.3c-0.3-0.5-0.6-1.1-0.7-1.7c-0.2-0.6-0.3-1.2-0.3-1.8c-0.2,0.5-0.5,1-0.7,1.6
		c-0.3,0.5-0.6,1-1,1.5c-0.4,0.5-0.8,0.9-1.3,1.2c-0.5,0.3-1,0.6-1.6,0.6c-0.6,0.1-1.1,0-1.5-0.2c-0.4-0.2-0.8-0.4-1.1-0.8
		c-0.3-0.3-0.6-0.8-0.8-1.2C26.3,34.4,26.2,34,26.1,33.5z"/>
	<path class="st0" d="M46.2,33.2c-0.3-1.2-0.5-2.4-0.6-3.6c-0.1-1.2-0.1-2.4-0.1-3.6c0-1.2,0.1-2.4,0.3-3.6c0.1-1.2,0.3-2.4,0.5-3.6
		c0.2-1.4,0.5-2.7,0.8-4s0.7-2.6,1.1-3.9c0.4-1.2,0.9-2.4,1.4-3.6s1.2-2.3,1.9-3.4c0.3-0.4,0.6-0.8,1.1-1.3C53,2.1,53.5,1.7,54,1.4
		s1-0.5,1.6-0.7c0.5-0.1,1.1-0.1,1.6,0.2c0.6,0.2,1,0.7,1.1,1.2c0.1,0.6,0.2,1.2,0.1,1.7C58.3,4.5,58.2,5,58,5.6
		c-0.2,0.6-0.3,1.2-0.5,1.7c-0.8,2.5-1.7,5-2.6,7.4c-0.9,2.4-2,4.8-3.1,7.2l-1.3,2.9c-0.1,0.2-0.2,0.4-0.2,0.6c0,0.2,0,0.4-0.1,0.7
		L50.1,28c0,0.7-0.1,1.3-0.1,2c0,0.7,0,1.3,0,2c0,0.3,0.1,0.6,0.1,0.9c0,0.3,0.1,0.6,0.2,0.9c0,0,0,0.1,0.1,0.3
		c0.1,0.2,0.1,0.2,0.1,0.2c0.4,0,0.8,0,1.2-0.2c0.4-0.2,0.7-0.4,1.1-0.7c0.5-0.4,0.9-0.8,1.3-1.2c0.4-0.4,0.8-0.9,1.1-1.5
		c0.3-0.5,0.6-0.9,0.9-1.4c0.3-0.5,0.6-1,0.8-1.5c0-0.1,0.1-0.2,0.2-0.4c0.1-0.1,0.2-0.2,0.3-0.3c0.2-0.1,0.4-0.1,0.6-0.1
		c0.2,0.1,0.4,0.2,0.5,0.4c0.1,0.2,0.1,0.4,0,0.6c-0.1,0.2-0.1,0.4-0.2,0.6c-0.2,0.6-0.4,1.2-0.6,1.7c-0.2,0.6-0.5,1.2-0.8,1.8
		c-0.3,0.6-0.6,1.2-1,1.7c-0.3,0.5-0.7,0.9-1,1.3c-0.4,0.4-0.8,0.8-1.2,1.1c-0.5,0.3-0.9,0.6-1.5,0.8c-0.5,0.2-1.1,0.3-1.7,0.4
		c-0.6,0-1.2-0.1-1.7-0.4c-0.5-0.3-0.9-0.6-1.2-1.1c-0.4-0.4-0.7-0.9-0.9-1.5S46.3,33.7,46.2,33.2z M52.7,12.5
		c-0.2,0.6-0.3,1.2-0.5,1.8c-0.1,0.6-0.3,1.2-0.4,1.8c0.7-1.1,1.3-2.2,1.8-3.3c0.6-1.1,1.1-2.2,1.6-3.4c0.2-0.6,0.4-1.1,0.7-1.7
		c0.2-0.6,0.4-1.1,0.5-1.7c0.1-0.3,0.1-0.6,0.2-0.9c0-0.3,0.1-0.6,0.1-0.9c0-0.1,0-0.2,0-0.4c0-0.1,0-0.3-0.1-0.4
		c0-0.1-0.1-0.2-0.1-0.3c-0.1-0.1-0.1-0.1-0.2,0c-0.1,0.1-0.3,0.3-0.4,0.6c-0.2,0.3-0.3,0.6-0.5,0.9c-0.2,0.3-0.3,0.7-0.5,1.1
		c-0.1,0.4-0.3,0.7-0.4,1c-0.3,0.9-0.7,1.9-1,2.9C53.2,10.5,53,11.5,52.7,12.5z"/>
	<path class="st0" d="M56.6,37.8c-0.4-0.1-0.7-0.2-0.9-0.4c-0.3-0.2-0.5-0.4-0.6-0.7s-0.3-0.6-0.3-0.9c0-0.3,0-0.7,0.1-1
		c0.1-0.3,0.2-0.6,0.3-0.9c0.1-0.3,0.2-0.6,0.2-0.9c0.7-2.3,1.3-4.6,1.9-6.9c0.6-2.3,1.2-4.6,1.9-6.9c0.1-0.4,0.3-0.8,0.5-1.1
		c0.2-0.3,0.6-0.5,1.1-0.6c0.5,0,1,0.1,1.3,0.5c0.3,0.4,0.5,0.8,0.5,1.3l-0.1,0.8l-1.1,6.2c0.4-1,0.8-2.1,1.2-3.1c0.5-1,1-2,1.6-2.9
		c0.2-0.2,0.3-0.5,0.5-0.7c0.2-0.2,0.4-0.5,0.5-0.7c0.2-0.3,0.5-0.6,0.7-0.9c0.2-0.3,0.6-0.5,0.9-0.7c0.4-0.2,0.8-0.3,1.2-0.4
		c0.4,0,0.8,0,1.2,0.1c0.4,0.1,0.8,0.3,1.1,0.5c0.3,0.2,0.6,0.6,0.9,0.9c0.3,0.4,0.5,0.9,0.6,1.4c0.1,0.5,0.2,1,0.2,1.6
		c0,0.5-0.1,1.1-0.1,1.6c-0.1,0.5-0.2,1-0.3,1.5l1.4-2.5c0.3-0.5,0.6-1.1,0.9-1.6c0.3-0.5,0.7-1,1.1-1.5c0.4-0.5,0.9-0.9,1.3-1.2
		c0.5-0.3,1.1-0.6,1.7-0.7c0.5-0.1,0.9-0.1,1.3,0c0.4,0,0.8,0.2,1.2,0.4c0.5,0.3,1,0.7,1.2,1.2s0.5,1.1,0.5,1.7c0,0.6,0,1.3-0.1,1.9
		c-0.1,0.6-0.3,1.2-0.5,1.8c-0.2,0.6-0.5,1.2-0.7,1.8c-0.3,0.6-0.5,1.1-0.8,1.7c-0.3,0.6-0.6,1.2-0.9,1.8c-0.3,0.6-0.6,1.2-0.8,1.9
		c-0.2,0.5-0.5,1.1-0.7,1.7c-0.2,0.6-0.4,1.2-0.5,1.7c0.6-0.1,1.1-0.4,1.6-0.7c0.5-0.4,1-0.8,1.4-1.1c0.5-0.5,1-0.9,1.5-1.4
		c0.5-0.5,0.9-1,1.4-1.5l1.1-1.3c0.1-0.1,0.1-0.2,0.2-0.3s0.1-0.2,0.2-0.2c0.1-0.1,0.2-0.2,0.3-0.2c0.1,0,0.2,0.1,0.3,0.2
		c0.1,0.1,0.1,0.2,0,0.3c0,0.1-0.1,0.2-0.1,0.3c-0.1,0.3-0.3,0.6-0.5,0.9c-0.6,1.1-1.3,2.3-2,3.4c-0.7,1.1-1.6,2.1-2.6,3
		c-0.3,0.3-0.7,0.6-1.2,0.9c-0.4,0.3-0.9,0.5-1.4,0.6c-0.5,0.1-0.9,0.1-1.4,0c-0.5-0.1-0.9-0.3-1.2-0.7c-0.4-0.5-0.6-1-0.7-1.6
		c-0.1-0.6-0.1-1.2,0-1.8c0.1-0.6,0.2-1.2,0.3-1.8c0.1-0.6,0.3-1.2,0.5-1.8c0.4-1.3,0.8-2.5,1.2-3.8c0.4-1.2,0.8-2.5,1.1-3.8
		c-0.9,0.5-1.8,1.1-2.4,1.8c-0.7,0.7-1.3,1.5-1.9,2.3c-0.6,0.9-1.2,1.7-1.7,2.6c-0.5,0.9-1.1,1.8-1.6,2.8c-0.3,0.5-0.5,1.1-0.7,1.7
		c-0.2,0.6-0.4,1.2-0.6,1.7c-0.1,0.2-0.2,0.5-0.3,0.8c-0.1,0.3-0.2,0.5-0.4,0.7c-0.3,0.4-0.7,0.7-1.2,0.7c-0.5,0.1-0.9,0-1.3-0.1
		c-0.4-0.2-0.8-0.5-1-0.8c-0.3-0.4-0.4-0.8-0.3-1.4c0-0.3,0.1-0.5,0.2-0.8c0.1-0.3,0.2-0.5,0.3-0.8l1.2-3.6c0.2-0.7,0.4-1.3,0.6-2
		c0.2-0.7,0.4-1.3,0.5-2c0.2-0.6,0.3-1.3,0.5-1.9c0.1-0.6,0.2-1.3,0.3-1.9c-0.6,0.7-1.2,1.4-1.7,2.1c-0.5,0.8-1,1.5-1.4,2.3
		c-0.5,0.8-0.9,1.6-1.3,2.4c-0.4,0.8-0.8,1.7-1.2,2.5c-0.3,0.7-0.6,1.4-0.9,2.1c-0.3,0.7-0.6,1.4-0.9,2.2c-0.1,0.3-0.2,0.6-0.4,0.9
		s-0.3,0.5-0.6,0.8C57.9,37.8,57.2,38,56.6,37.8z M76.5,34.6C76.6,34.6,76.6,34.6,76.5,34.6c0.1,0,0.1,0,0.1,0L76.5,34.6
		C76.6,34.6,76.6,34.6,76.5,34.6z"/>
</g>
</svg>
